<svg xmlns="http://www.w3.org/2000/svg" xmlns:xlink="http://www.w3.org/1999/xlink" version="1.1" x="0px" y="0px" viewBox="0 0 100 125" enable-background="new 0 0 100 100" xml:space="preserve"><g><path d="M91.774,62.027l-6.322-2.446l-0.544-3.263l-0.951-0.545l-2.447-3.807v-1.155l-3.264-1.631l-0.34,0.68H70.36l0.341-1.631   H52.195l-0.323-22.997c0.181-0.098,0.303-0.286,0.303-0.505c0-0.319-0.258-0.578-0.577-0.578s-0.577,0.259-0.577,0.578   c0,0.219,0.123,0.408,0.303,0.505L51,48.229h-8.647v-2.244v-0.952h-1.088c0,0-1.359-1.02-2.039-1.02   c-0.68,0-2.017,1.224-2.017,1.224h-0.77v0.476v3.467l-1.156,0.407H24.065l-0.884-0.747l-2.719,1.496l-0.272,2.175h-0.543   l0.815,0.612l-0.476,1.836l-0.748,0.339l-0.612,2.855l-9.178,2.991l-0.407,0.883H6.118v12.012H18.18V73.66h3.127v0.379h9.74V73.66   h3.128v0.379h1.061v1.087h1.542h20.847l0.636,0.726h3.807l-0.182-0.635h5.076l0.09-1.903h0.677v-0.275h3.127v0.275H81.34v-0.275   h3.127v0.275h9.415V62.436L91.774,62.027z M18.622,73.594l0.25-2.606h1.586l0.408,2.606H18.622z M20.945,70.9h-2.402v-0.408h2.402   V70.9z M31.491,73.594l0.249-2.606h1.586l0.408,2.606H31.491z M33.813,70.9h-2.402v-0.408h2.402V70.9z M38.206,45.962   c0,0,0.34-0.907,1.065-0.907s1.064,0.907,1.064,0.907v0.748h-2.13V45.962z M38.206,47.151h1.035c0,0-0.113,0.164-0.316,0.235   c-0.205,0.071-0.194,0.296-0.194,0.551s-0.042,0.828-0.317,0.95c-0.184,0.082,0.358,0.337,0.828,0.306h0.061   c0.47,0.031,1.011-0.225,0.828-0.306c-0.276-0.123-0.317-0.695-0.317-0.95s0.01-0.48-0.195-0.551   c-0.203-0.072-0.316-0.235-0.316-0.235h1.034v3.411h-2.13V47.151z M44.734,71.816h-1.536v-2.171h0.299   c0,0.259,0.21,0.469,0.469,0.469c0.259,0,0.469-0.21,0.469-0.469h0.299V71.816z M43.634,69.646c0-0.184,0.148-0.331,0.331-0.331   c0.184,0,0.332,0.147,0.332,0.331c0,0.183-0.147,0.331-0.332,0.331C43.783,69.977,43.634,69.828,43.634,69.646z M54.499,70.64   h-8.294v-6.526c0,0,1.184-2.221,4.172-2.221c2.988,0,4.122,2.537,4.122,2.537V70.64z M57.81,71.816h-1.536v-2.171h0.299   c0,0.259,0.209,0.469,0.469,0.469c0.259,0,0.469-0.21,0.469-0.469h0.3V71.816z M56.71,69.646c0-0.184,0.148-0.331,0.331-0.331   s0.331,0.147,0.331,0.331c0,0.183-0.148,0.331-0.331,0.331S56.71,69.828,56.71,69.646z M61.999,71.954V54.959   c-11.421-4.284-21.006-0.137-21.006-0.137v16.724h-2.379V52.646c0,0,2.175-2.651,12.645-2.651c10.47,0,12.781,3.195,12.781,3.195   l0.136,18.764H61.999z M68.171,72.972l0.249-2.606h1.586l0.408,2.606H68.171z M70.493,70.279h-2.401v-0.408h2.401V70.279z    M81.781,72.972l0.249-2.606h1.586l0.408,2.606H81.781z M84.104,70.279h-2.402v-0.408h2.402V70.279z"/><path d="M52.435,31.404c0.331-0.032,1.793,0.528,2.481,0.804c0.69,0.276,4.194,0.965,4.194,0.965l0.801-3.89   c-0.048-0.013-0.096-0.026-0.143-0.04c-3.42-0.954-7.884-3.11-7.884-3.11L52.435,31.404z"/><path d="M57.289,34.802c-0.579-0.055-1.572-0.414-2.648-0.983s-2.206-0.253-2.206-0.253l-0.26,5.032   c0.332-0.276,2.825,0.122,4.221,0.287s4.095,0.193,4.095,0.193c0.082-0.606-1.076-2.565-1.407-2.979   c-0.332-0.414-0.138-1.021-0.138-1.021S57.869,34.857,57.289,34.802z"/><path d="M61.097,33.478l8.497,1.406c0,0-1.352-1.435-1.104-1.958c0,0-4.131-2.011-7.165-3.17c0.062,0.025,0.527,0.234,0.296,0.852   C61.373,31.271,61.097,33.478,61.097,33.478z"/><path d="M61.325,29.756c-0.005-0.002-0.008-0.003-0.008-0.003C61.32,29.754,61.322,29.755,61.325,29.756z"/><path d="M61.677,37.919c0.357,0.331,0.414,1.048,0.414,1.048l3.132,0.11c0,0,2.826,0.304,2.826-0.11   c0-0.414,0.662-1.352,0.994-1.573c0.331-0.221,0.551-1.117,0.551-1.117s-2.428-0.345-3.2-0.373   c-0.771-0.028-5.463-0.524-5.463-0.524s0.028,0.883,0,1.127C60.903,36.752,61.317,37.588,61.677,37.919z"/></g><text x="0" y="115" fill="#000000" font-size="5px" font-weight="bold" font-family="'Helvetica Neue', Helvetica, Arial-Unicode, Arial, Sans-serif">Created by Nicko Studio</text><text x="0" y="120" fill="#000000" font-size="5px" font-weight="bold" font-family="'Helvetica Neue', Helvetica, Arial-Unicode, Arial, Sans-serif">from the Noun Project</text></svg>